<svg width="126" height="21" viewBox="0 0 126 21" fill="none" xmlns="http://www.w3.org/2000/svg">
<path d="M13.592 10.688L8.36 20H4.784L0.968 5.576H4.784L7.256 15.632L12.392 6.536H15.968L18.56 15.632L23.864 5.576H27.68L19.808 20H16.256L13.592 10.688ZM36.6909 5.096C38.0509 5.096 39.2509 5.248 40.2909 5.552C41.3309 5.856 42.1869 6.32 42.8589 6.944C43.5309 7.552 44.0029 8.312 44.2749 9.224C44.5469 10.12 44.5949 11.168 44.4189 12.368L44.2029 13.976H30.6429C30.4989 15.128 30.7949 16 31.5309 16.592C32.2669 17.184 33.4029 17.48 34.9389 17.48C36.3949 17.48 37.5309 17.288 38.3469 16.904C39.1789 16.52 39.6749 16.088 39.8349 15.608H43.8429C43.5549 16.392 43.1229 17.088 42.5469 17.696C41.9869 18.288 41.3069 18.792 40.5069 19.208C39.7069 19.624 38.8029 19.936 37.7949 20.144C36.7869 20.368 35.6989 20.48 34.5309 20.48C33.1709 20.48 31.9629 20.32 30.9069 20C29.8669 19.68 29.0109 19.2 28.3389 18.56C27.6669 17.904 27.1949 17.104 26.9229 16.16C26.6509 15.2 26.6029 14.08 26.7789 12.8C26.9549 11.536 27.3149 10.424 27.8589 9.464C28.4029 8.488 29.0989 7.68 29.9469 7.04C30.8109 6.4 31.8109 5.92 32.9469 5.6C34.0829 5.264 35.3309 5.096 36.6909 5.096ZM36.2589 8.096C34.6109 8.096 33.3629 8.392 32.5149 8.984C31.6829 9.56 31.1789 10.352 31.0029 11.36L30.9789 11.552H40.5309L40.6029 11.072C40.7309 10.144 40.4269 9.416 39.6909 8.888C38.9549 8.36 37.8109 8.096 36.2589 8.096ZM65.1044 20L66.4004 10.592C66.5124 9.824 66.3764 9.216 65.9924 8.768C65.6084 8.32 64.9124 8.096 63.9044 8.096C62.9604 8.096 62.2004 8.32 61.6244 8.768C61.0484 9.216 60.7044 9.824 60.5924 10.592L59.2724 20H55.2644L56.5844 10.592C56.6964 9.824 56.5444 9.216 56.1284 8.768C55.7124 8.32 55.0244 8.096 54.0644 8.096C53.1524 8.096 52.4084 8.32 51.8324 8.768C51.2564 9.216 50.8964 9.848 50.7524 10.664L49.4564 20H45.4484L47.4644 5.576H50.1284L50.4644 7.424C51.1044 6.656 51.8644 6.08 52.7444 5.696C53.6244 5.312 54.5204 5.12 55.4324 5.12C56.5844 5.12 57.5444 5.336 58.3124 5.768C59.0964 6.2 59.6484 6.848 59.9684 7.712C60.6244 6.8 61.4404 6.136 62.4164 5.72C63.4084 5.304 64.4084 5.096 65.4164 5.096C66.2484 5.096 67.0004 5.208 67.6724 5.432C68.3604 5.64 68.9284 5.968 69.3764 6.416C69.8244 6.864 70.1364 7.432 70.3124 8.12C70.5044 8.808 70.5364 9.632 70.4084 10.592L69.1124 20H65.1044ZM72.1284 20L74.1444 5.576H78.1524L76.1364 20H72.1284ZM74.3124 2.36C74.4084 1.672 74.6884 1.128 75.1524 0.727999C75.6324 0.311999 76.2164 0.103999 76.9044 0.103999C77.5924 0.103999 78.1124 0.311999 78.4644 0.727999C78.8324 1.128 78.9604 1.672 78.8484 2.36C78.7684 3.064 78.4884 3.624 78.0084 4.04C77.5444 4.44 76.9684 4.64 76.2804 4.64C75.5924 4.64 75.0724 4.44 74.7204 4.04C74.3684 3.624 74.2324 3.064 74.3124 2.36ZM93.8386 10.976C93.8706 10.064 93.5346 9.36 92.8306 8.864C92.1426 8.352 91.1346 8.096 89.8066 8.096C89.0546 8.096 88.3506 8.176 87.6946 8.336C87.0386 8.496 86.4546 8.768 85.9426 9.152C85.4466 9.52 85.0226 10.008 84.6706 10.616C84.3346 11.208 84.1106 11.936 83.9986 12.8C83.8706 13.696 83.8866 14.44 84.0466 15.032C84.2226 15.624 84.5106 16.104 84.9106 16.472C85.3266 16.84 85.8386 17.104 86.4466 17.264C87.0546 17.408 87.7346 17.48 88.4866 17.48C89.1586 17.48 89.7746 17.4 90.3346 17.24C90.9106 17.08 91.4066 16.872 91.8226 16.616C92.2386 16.344 92.5826 16.032 92.8546 15.68C93.1266 15.328 93.3106 14.952 93.4066 14.552L97.1746 14.768C97.0146 15.632 96.6546 16.416 96.0946 17.12C95.5346 17.824 94.8306 18.424 93.9826 18.92C93.1346 19.416 92.1746 19.8 91.1026 20.072C90.0306 20.344 88.9026 20.48 87.7186 20.48C86.3586 20.48 85.1586 20.32 84.1186 20C83.0786 19.68 82.2226 19.2 81.5506 18.56C80.8786 17.904 80.4066 17.104 80.1346 16.16C79.8626 15.2 79.8146 14.08 79.9906 12.8C80.1666 11.536 80.5266 10.424 81.0706 9.464C81.6146 8.488 82.3106 7.68 83.1586 7.04C84.0226 6.4 85.0146 5.92 86.1346 5.6C87.2706 5.264 88.5186 5.096 89.8786 5.096C91.1746 5.096 92.3186 5.232 93.3106 5.504C94.3186 5.76 95.1586 6.136 95.8306 6.632C96.5026 7.112 96.9986 7.704 97.3186 8.408C97.6386 9.096 97.7746 9.88 97.7266 10.76L93.8386 10.976ZM99.2401 12.8C99.4161 11.584 99.7601 10.496 100.272 9.536C100.784 8.576 101.424 7.768 102.192 7.112C102.976 6.456 103.88 5.96 104.904 5.624C105.928 5.272 107.032 5.096 108.216 5.096C109.576 5.096 110.776 5.328 111.816 5.792C112.856 6.256 113.616 6.992 114.096 8L114.936 5.576H118.128L116.112 20H112.848L112.704 17.648C111.936 18.64 110.96 19.36 109.776 19.808C108.592 20.256 107.352 20.48 106.056 20.48C104.952 20.48 103.944 20.312 103.032 19.976C102.136 19.624 101.376 19.12 100.752 18.464C100.128 17.808 99.6721 17.008 99.3841 16.064C99.1121 15.104 99.0641 14.016 99.2401 12.8ZM107.496 17.48C108.04 17.48 108.616 17.416 109.224 17.288C109.832 17.16 110.392 16.96 110.904 16.688C111.432 16.416 111.88 16.064 112.248 15.632C112.616 15.2 112.84 14.68 112.92 14.072L113.28 11.528C113.36 10.936 113.272 10.424 113.016 9.992C112.776 9.544 112.432 9.184 111.984 8.912C111.552 8.64 111.048 8.44 110.472 8.312C109.912 8.168 109.352 8.096 108.792 8.096C107.32 8.096 106.08 8.504 105.072 9.32C104.08 10.12 103.472 11.28 103.248 12.8C103.152 13.552 103.176 14.224 103.32 14.816C103.48 15.392 103.744 15.88 104.112 16.28C104.496 16.664 104.968 16.96 105.528 17.168C106.104 17.376 106.76 17.48 107.496 17.48ZM118.844 20L121.556 0.559999H125.564L122.852 20H118.844Z" fill="white"/>
</svg>
